<?xml version="1.0" standalone="no"?>
<!DOCTYPE svg PUBLIC "-//W3C//DTD SVG 20010904//EN"
 "http://www.w3.org/TR/2001/REC-SVG-20010904/DTD/svg10.dtd">
<svg version="1.0" xmlns="http://www.w3.org/2000/svg"
 width="512.000000pt" height="512.000000pt" viewBox="0 0 512.000000 512.000000"
 preserveAspectRatio="xMidYMid meet">
<metadata>
Created by potrace 1.14, written by Peter Selinger 2001-2017
</metadata>
<g transform="translate(0.000000,512.000000) scale(0.100000,-0.100000)"
fill="#000000" stroke="none">
<path d="M3305 5101 c-40 -25 -53 -81 -60 -246 -3 -82 -8 -204 -10 -270 -3
-66 -7 -223 -9 -349 -3 -125 -6 -230 -8 -231 -3 -3 -36 -8 -125 -20 -176 -22
-182 -22 -458 -40 -177 -12 -237 -15 -390 -21 -88 -3 -194 -7 -235 -9 -41 -2
-163 -7 -270 -10 -107 -4 -208 -8 -225 -9 -27 -1 -29 1 -31 39 -2 69 -15 228
-19 234 -1 3 -6 24 -9 45 -19 118 -85 267 -139 312 -25 21 -38 25 -68 21 -36
-5 -37 -4 -43 32 -16 101 -114 224 -221 277 -53 26 -70 29 -150 29 -81 -1 -97
-4 -159 -34 -79 -38 -153 -107 -186 -172 -13 -24 -36 -59 -51 -77 -67 -76 -99
-173 -95 -286 2 -95 27 -155 91 -222 135 -141 325 -162 505 -54 57 34 85 58
161 138 9 9 28 36 43 60 24 38 39 54 34 35 -1 -5 1 -46 6 -93 7 -87 13 -155
20 -246 l4 -52 -37 1 c-43 0 -272 -12 -338 -18 -231 -22 -406 -62 -528 -120
-76 -36 -115 -73 -115 -109 0 -29 9 -40 49 -64 34 -21 36 -21 65 -3 38 23 80
33 194 46 107 12 422 27 622 29 l95 1 -1 -330 c0 -284 -7 -611 -19 -935 -2
-47 -5 -136 -6 -199 -4 -127 -1 -123 -89 -135 -52 -7 -55 -8 -225 -42 -71 -14
-141 -27 -155 -30 -58 -10 -227 -49 -402 -91 -130 -31 -192 -50 -204 -64 -24
-26 -21 -80 7 -102 21 -17 77 -18 179 -2 14 2 61 7 105 10 44 4 87 8 95 10 8
3 47 7 85 10 39 3 88 8 110 10 22 2 78 6 125 10 47 4 101 8 120 10 19 2 81 6
138 10 l102 7 0 -208 c1 -115 3 -256 5 -314 7 -189 15 -335 20 -360 2 -14 7
-61 11 -105 7 -95 9 -112 19 -185 4 -30 9 -68 10 -85 5 -42 51 -293 74 -393
21 -98 46 -129 106 -137 49 -7 96 19 120 65 16 30 16 76 0 150 -5 24 -15 87
-20 125 -7 46 -27 192 -30 220 -6 43 -16 141 -20 205 -2 30 -7 89 -10 130 -11
132 -16 288 -19 602 -4 281 -3 308 12 309 10 1 26 3 37 4 11 1 85 6 165 10 80
4 165 9 190 10 25 2 104 6 175 10 72 4 159 8 195 10 36 2 126 6 200 10 74 3
172 8 217 10 186 10 425 18 528 19 l110 1 1 -45 c0 -25 4 -110 8 -190 4 -80 9
-185 11 -235 3 -49 7 -137 10 -195 3 -58 7 -161 10 -230 3 -69 7 -168 10 -220
2 -52 7 -158 10 -235 11 -253 13 -267 33 -294 20 -28 64 -43 98 -35 43 11 64
46 69 115 7 92 22 756 30 1324 2 138 4 253 4 256 1 3 29 7 64 8 34 1 98 4 142
6 44 2 136 6 205 10 126 5 235 11 390 20 207 12 259 16 315 20 33 2 110 7 170
11 119 6 148 15 177 54 26 36 29 80 8 127 -27 61 -35 63 -310 79 -63 3 -144 8
-180 10 -36 2 -270 7 -520 10 -250 4 -457 8 -460 11 -2 2 -5 119 -6 261 -2
286 -12 808 -20 1065 l-5 167 28 1 c15 1 48 3 73 5 56 4 455 5 530 0 89 -6
167 -16 290 -38 201 -36 198 -36 228 -21 37 18 60 60 57 103 -2 27 -14 44 -48
76 -129 117 -360 175 -687 175 -91 0 -185 -3 -210 -5 -25 -2 -81 -7 -125 -11
-44 -3 -95 -9 -112 -12 -27 -4 -33 -2 -34 13 -4 81 -8 167 -13 269 -7 140 -15
289 -21 395 -3 41 -7 120 -10 175 -8 160 -21 196 -78 214 -41 13 -70 11 -102
-8z m-2388 -456 c76 -45 103 -154 63 -257 -41 -110 -159 -198 -266 -198 -116
0 -183 63 -176 165 4 51 14 85 25 85 15 0 68 55 117 120 19 25 44 53 55 64 50
47 124 55 182 21z m2308 -1260 c3 -192 8 -399 10 -460 6 -208 16 -480 20 -570
4 -80 2 -91 -13 -91 -305 -13 -415 -19 -554 -29 -38 -3 -101 -7 -140 -10 -141
-10 -260 -21 -343 -30 -22 -3 -87 -9 -145 -15 -58 -6 -121 -13 -140 -15 -19
-2 -62 -7 -95 -11 -33 -3 -69 -8 -80 -10 -11 -2 -42 -7 -70 -10 -27 -4 -57 -8
-65 -9 -26 -5 -149 -18 -157 -16 -4 0 -5 110 -4 244 2 133 5 391 6 572 2 182
6 353 9 380 3 28 8 115 11 195 4 80 8 147 11 149 5 5 88 8 479 16 399 8 659
19 735 30 14 2 59 6 100 10 41 3 91 8 110 10 87 10 140 15 210 21 41 3 77 8
79 10 16 15 21 -49 26 -361z"/>
<path d="M2755 3377 c-70 -23 -206 -156 -292 -286 -1 -2 -33 24 -70 58 -84 77
-187 148 -239 166 -33 11 -43 11 -66 -1 -33 -17 -48 -43 -48 -81 0 -23 25 -52
141 -165 l142 -137 -66 -82 c-75 -93 -138 -206 -139 -247 -2 -67 72 -115 136
-88 17 7 54 40 83 72 28 32 65 75 83 94 17 19 38 45 47 58 15 22 16 21 117
-83 122 -126 170 -152 267 -146 39 2 79 47 79 89 0 54 -35 102 -131 177 -49
38 -107 88 -129 110 l-39 40 121 125 c151 157 174 203 136 271 -31 55 -77 75
-133 56z"/>
<path d="M4645 1621 c-22 -10 -52 -31 -66 -47 -26 -28 -174 -240 -208 -296 -9
-15 -21 -30 -28 -32 -7 -3 -55 24 -107 59 -116 80 -314 185 -347 185 -71 0
-110 -98 -61 -153 9 -11 51 -42 92 -70 114 -77 290 -208 290 -216 0 -4 -32
-56 -71 -117 -137 -213 -231 -443 -215 -528 7 -36 37 -69 77 -85 42 -15 70 6
109 84 104 211 271 495 289 495 5 0 33 -23 62 -50 73 -68 164 -126 222 -142
42 -11 51 -10 82 7 62 33 62 106 -2 194 -26 37 -130 124 -192 162 -17 10 -31
23 -31 29 0 22 156 227 220 289 50 50 69 75 74 102 19 105 -87 178 -189 130z"/>
<path d="M2501 1489 c-42 -9 -79 -27 -111 -54 -14 -12 -41 -28 -60 -35 -174
-67 -282 -311 -233 -524 48 -210 222 -338 449 -331 276 8 474 201 477 465 1
154 -66 286 -193 381 -43 32 -150 92 -150 85 0 -3 -12 -1 -27 5 -35 13 -110
17 -152 8z m145 -269 c18 -6 47 -27 65 -47 139 -158 40 -379 -173 -388 -99 -4
-160 36 -206 134 -21 45 -24 63 -20 121 4 56 11 76 42 122 l36 55 57 2 c31 0
58 3 60 4 8 9 110 6 139 -3z"/>
<path d="M483 1282 c-28 -4 -73 -49 -85 -84 -8 -23 -12 -25 -28 -16 -14 9 -28
8 -63 -6 -150 -57 -244 -235 -240 -451 2 -68 21 -173 34 -181 5 -3 9 -12 9
-20 0 -22 57 -103 103 -147 151 -144 409 -139 570 12 199 186 197 561 -4 762
-88 88 -216 145 -296 131z m10 -233 c168 -45 260 -258 180 -417 -15 -31 -44
-69 -63 -84 -42 -33 -129 -54 -182 -44 -63 12 -125 90 -143 181 -26 130 -3
228 92 378 l24 38 26 -21 c14 -11 44 -25 66 -31z"/>
</g>
</svg>
